<svg xmlns="http://www.w3.org/2000/svg" version="1.1" xmlns:xlink="http://www.w3.org/1999/xlink" xmlns:svgjs="http://svgjs.dev/svgjs" width="1000" height="1000" viewBox="0 0 1000 1000"><rect width="1000" height="1000" fill="#000000"></rect><g transform="matrix(0.7,0,0,0.7,150.07466666666664,354.59700978190097)"><svg viewBox="0 0 375 156" data-background-color="#ffffff" preserveAspectRatio="xMidYMid meet" height="416" width="1000" xmlns="http://www.w3.org/2000/svg" xmlns:xlink="http://www.w3.org/1999/xlink"><defs></defs><g id="tight-bounds" transform="matrix(1,0,0,1,-0.03976036071776434,-0.10506085205076943)"><svg viewBox="0 0 375.07952880859375 156.21060180664062" height="156.21060180664062" width="375.07952880859375"><g><svg></svg></g><g><svg viewBox="0 0 375.07952880859375 156.21060180664062" height="156.21060180664062" width="375.07952880859375"><g transform="matrix(1,0,0,1,-10.220239639282227,-46.87648010253906)"><path d="M10.22 200.324v-153.448h375.08v153.448l-127.537 0 0-4.779h122.758v-143.89h-365.522v143.89l20.546 0 0 4.779z" fill="#000000" data-fill-palette-color="tertiary"></path><path d="M49.881 202.862v-12.854h1.593l6.783 8.957 0.45 0.599 0.075-0.018v-0.862-8.676h1.667v12.854h-1.518l-6.82-9.069-0.487-0.656-0.075 0.019v0.768 8.938zM67.139 203.087c-1.512 0-2.648-0.422-3.411-1.267-0.762-0.842-1.143-2.137-1.143-3.886v0c0-1.749 0.381-3.046 1.143-3.89 0.762-0.842 1.899-1.263 3.411-1.263v0c1.512 0 2.648 0.421 3.41 1.263 0.762 0.844 1.143 2.141 1.143 3.89v0c0 1.749-0.381 3.044-1.143 3.886-0.762 0.844-1.899 1.267-3.41 1.267zM67.139 201.719c0.999 0 1.724-0.291 2.173-0.873 0.45-0.58 0.675-1.525 0.675-2.837v0-0.15c0-1.312-0.225-2.259-0.675-2.841-0.45-0.58-1.174-0.869-2.173-0.869v0c-0.999 0-1.724 0.29-2.174 0.869-0.45 0.582-0.675 1.529-0.674 2.841v0 0.15c0 1.312 0.225 2.257 0.674 2.837 0.45 0.582 1.174 0.873 2.174 0.873zM78.813 202.862v-13.547h1.648v13.547zM82.972 191.095v-1.78h1.631v1.78zM82.972 202.862v-9.856h1.649v9.856zM87.132 202.862v-9.856h1.256l0.187 1.33h0.131c0.675-1.037 1.661-1.555 2.961-1.555v0c1.274 0 2.124 0.518 2.548 1.555v0h0.113c0.337-0.5 0.778-0.884 1.323-1.154 0.542-0.267 1.119-0.401 1.731-0.401v0c1.936 0 2.904 0.993 2.904 2.98v0 7.101h-1.649v-6.802c0-0.712-0.156-1.209-0.468-1.491-0.312-0.28-0.743-0.42-1.293-0.42v0c-0.662 0-1.218 0.262-1.668 0.787-0.45 0.525-0.675 1.224-0.674 2.099v0 5.827h-1.649v-6.802c0-0.712-0.15-1.209-0.45-1.491-0.3-0.28-0.725-0.42-1.274-0.42v0c-0.425 0-0.818 0.115-1.181 0.345-0.362 0.232-0.652 0.567-0.869 1.004-0.22 0.437-0.33 0.949-0.33 1.537v0 5.827zM102.741 191.095v-1.78h1.63v1.78zM102.741 202.862v-9.856h1.649v9.856zM109.131 203.068c-0.675 0-1.168-0.2-1.481-0.599-0.312-0.4-0.468-0.893-0.468-1.481v0-6.614h-1.199v-1.368h1.218l0.356-2.736h1.274v2.736h1.668v1.368h-1.668v6.465c0 0.587 0.275 0.881 0.824 0.88v0h0.844v1.087c-0.162 0.075-0.375 0.137-0.638 0.187-0.262 0.05-0.506 0.075-0.73 0.075zM115.483 203.087c-0.912 0-1.67-0.135-2.275-0.405-0.607-0.267-1.054-0.62-1.342-1.056-0.287-0.437-0.431-0.912-0.431-1.425v0c0-0.15 0.003-0.254 0.008-0.311 0.007-0.055 0.011-0.089 0.011-0.101v0h1.63v0.188c0 0.587 0.231 1.028 0.694 1.322 0.462 0.292 1.062 0.438 1.799 0.439v0c0.637 0 1.164-0.129 1.581-0.386 0.42-0.255 0.63-0.613 0.63-1.076v0c0-0.362-0.119-0.66-0.356-0.892-0.237-0.23-0.531-0.411-0.881-0.543-0.35-0.13-0.824-0.27-1.424-0.42v0c-0.725-0.187-1.314-0.375-1.769-0.562-0.457-0.187-0.846-0.466-1.166-0.836-0.317-0.367-0.476-0.844-0.476-1.431v0c0-0.862 0.354-1.547 1.061-2.054 0.705-0.505 1.656-0.757 2.856-0.757v0c0.75 0 1.399 0.121 1.948 0.364 0.55 0.245 0.966 0.57 1.248 0.974 0.28 0.407 0.42 0.861 0.42 1.36v0l-0.019 0.356h-1.611v-0.168c0-0.437-0.171-0.799-0.513-1.087-0.345-0.287-0.898-0.431-1.661-0.431v0c-0.75 0-1.274 0.134-1.574 0.401-0.3 0.27-0.45 0.58-0.449 0.929v0c0 0.287 0.106 0.525 0.318 0.712 0.212 0.187 0.475 0.337 0.787 0.45 0.312 0.112 0.75 0.237 1.312 0.375v0c0.775 0.2 1.405 0.396 1.892 0.588 0.487 0.195 0.903 0.488 1.248 0.881 0.342 0.395 0.513 0.917 0.514 1.567v0c0 1.012-0.365 1.77-1.095 2.274-0.732 0.507-1.704 0.761-2.915 0.761zM121.929 202.862v-2.023h1.874v2.023zM134.858 203.087c-1.174 0-2.08-0.312-2.717-0.937-0.637-0.625-0.956-1.53-0.956-2.717v0-0.468h1.78v0.562c0 0.675 0.162 1.183 0.488 1.525 0.325 0.345 0.793 0.517 1.405 0.517v0c0.625 0 1.099-0.197 1.424-0.592 0.325-0.392 0.487-0.976 0.487-1.75v0-9.219h1.78v9.125c0 1.312-0.319 2.299-0.955 2.961-0.637 0.662-1.549 0.993-2.736 0.993zM144.283 203.087c-0.987 0-1.745-0.266-2.275-0.798-0.532-0.53-0.798-1.382-0.798-2.556v0-6.727h1.649v6.615c0 0.787 0.175 1.333 0.525 1.637 0.35 0.307 0.856 0.461 1.518 0.461v0c0.475 0 0.912-0.116 1.311-0.348 0.4-0.23 0.718-0.563 0.956-1.001 0.237-0.437 0.356-0.949 0.356-1.536v0-5.828h1.649v9.856h-1.256l-0.187-1.33h-0.131c-0.725 1.037-1.83 1.555-3.317 1.555zM155.058 203.087c-0.912 0-1.671-0.135-2.279-0.405-0.605-0.267-1.051-0.62-1.338-1.056-0.287-0.437-0.431-0.912-0.431-1.425v0c0-0.15 0.003-0.254 0.008-0.311 0.007-0.055 0.011-0.089 0.011-0.101v0h1.63v0.188c0 0.587 0.231 1.028 0.693 1.322 0.462 0.292 1.062 0.438 1.799 0.439v0c0.637 0 1.164-0.129 1.582-0.386 0.42-0.255 0.63-0.613 0.629-1.076v0c0-0.362-0.119-0.66-0.356-0.892-0.237-0.23-0.531-0.411-0.88-0.543-0.35-0.13-0.824-0.27-1.424-0.42v0c-0.725-0.187-1.314-0.375-1.769-0.562-0.457-0.187-0.846-0.466-1.166-0.836-0.317-0.367-0.476-0.844-0.476-1.431v0c0-0.862 0.354-1.547 1.061-2.054 0.705-0.505 1.656-0.757 2.855-0.757v0c0.75 0 1.399 0.121 1.949 0.364 0.55 0.245 0.964 0.57 1.244 0.974 0.282 0.407 0.423 0.861 0.424 1.36v0l-0.019 0.356h-1.611v-0.168c0-0.437-0.171-0.799-0.514-1.087-0.345-0.287-0.898-0.431-1.66-0.431v0c-0.75 0-1.274 0.134-1.574 0.401-0.3 0.27-0.45 0.58-0.45 0.929v0c0 0.287 0.106 0.525 0.319 0.712 0.212 0.187 0.475 0.337 0.787 0.45 0.312 0.112 0.75 0.237 1.312 0.375v0c0.775 0.2 1.405 0.396 1.892 0.588 0.487 0.195 0.903 0.488 1.248 0.881 0.342 0.395 0.513 0.917 0.513 1.567v0c0 1.012-0.365 1.77-1.094 2.274-0.732 0.507-1.704 0.761-2.915 0.761zM163.284 203.068c-0.675 0-1.168-0.2-1.481-0.599-0.312-0.4-0.468-0.893-0.468-1.481v0-6.614h-1.199v-1.368h1.218l0.356-2.736h1.274v2.736h1.667v1.368h-1.667v6.465c0 0.587 0.275 0.881 0.824 0.88v0h0.843v1.087c-0.162 0.075-0.375 0.137-0.637 0.187-0.262 0.05-0.506 0.075-0.73 0.075zM174.845 203.087c-0.912 0-1.671-0.135-2.279-0.405-0.605-0.267-1.051-0.62-1.338-1.056-0.287-0.437-0.431-0.912-0.431-1.425v0c0-0.15 0.003-0.254 0.008-0.311 0.007-0.055 0.011-0.089 0.011-0.101v0h1.63v0.188c0 0.587 0.231 1.028 0.694 1.322 0.462 0.292 1.062 0.438 1.799 0.439v0c0.637 0 1.164-0.129 1.581-0.386 0.42-0.255 0.63-0.613 0.63-1.076v0c0-0.362-0.119-0.66-0.356-0.892-0.237-0.23-0.531-0.411-0.881-0.543-0.35-0.13-0.824-0.27-1.424-0.42v0c-0.725-0.187-1.315-0.375-1.773-0.562-0.455-0.187-0.842-0.466-1.161-0.836-0.317-0.367-0.476-0.844-0.476-1.431v0c0-0.862 0.352-1.547 1.056-2.054 0.707-0.505 1.66-0.757 2.86-0.757v0c0.75 0 1.399 0.121 1.949 0.364 0.55 0.245 0.964 0.57 1.244 0.974 0.282 0.407 0.423 0.861 0.423 1.36v0l-0.018 0.356h-1.612v-0.168c0-0.437-0.172-0.799-0.517-1.087-0.342-0.287-0.894-0.431-1.657-0.431v0c-0.75 0-1.274 0.134-1.574 0.401-0.3 0.27-0.45 0.58-0.449 0.929v0c0 0.287 0.106 0.525 0.318 0.712 0.212 0.187 0.475 0.337 0.787 0.45 0.312 0.112 0.75 0.237 1.312 0.375v0c0.775 0.2 1.405 0.396 1.892 0.588 0.487 0.195 0.902 0.488 1.245 0.881 0.345 0.395 0.517 0.917 0.517 1.567v0c0 1.012-0.366 1.77-1.098 2.274-0.73 0.507-1.7 0.761-2.912 0.761zM184.795 203.087c-1.512 0-2.648-0.422-3.411-1.267-0.762-0.842-1.143-2.137-1.143-3.886v0c0-1.749 0.381-3.046 1.143-3.89 0.762-0.842 1.899-1.263 3.411-1.263v0c1.512 0 2.648 0.421 3.41 1.263 0.762 0.844 1.143 2.141 1.143 3.89v0c0 1.749-0.381 3.044-1.143 3.886-0.762 0.844-1.899 1.267-3.41 1.267zM184.795 201.719c0.999 0 1.724-0.291 2.173-0.873 0.45-0.58 0.675-1.525 0.675-2.837v0-0.15c0-1.312-0.225-2.259-0.675-2.841-0.45-0.58-1.174-0.869-2.173-0.869v0c-0.999 0-1.724 0.29-2.174 0.869-0.45 0.582-0.675 1.529-0.674 2.841v0 0.15c0 1.312 0.225 2.257 0.674 2.837 0.45 0.582 1.174 0.873 2.174 0.873zM191.259 202.862v-13.547h1.649v13.547zM198.436 203.087c-0.987 0-1.746-0.266-2.278-0.798-0.53-0.53-0.794-1.382-0.795-2.556v0-6.727h1.649v6.615c0 0.787 0.175 1.333 0.525 1.637 0.35 0.307 0.856 0.461 1.517 0.461v0c0.475 0 0.912-0.116 1.312-0.348 0.4-0.23 0.718-0.563 0.956-1.001 0.237-0.437 0.356-0.949 0.356-1.536v0-5.828h1.649v9.856h-1.256l-0.187-1.33h-0.131c-0.725 1.037-1.83 1.555-3.317 1.555zM208.067 203.068c-0.675 0-1.168-0.2-1.48-0.599-0.312-0.4-0.468-0.893-0.468-1.481v0-6.614h-1.2v-1.368h1.218l0.356-2.736h1.275v2.736h1.667v1.368h-1.667v6.465c0 0.587 0.275 0.881 0.824 0.88v0h0.843v1.087c-0.162 0.075-0.375 0.137-0.637 0.187-0.262 0.05-0.506 0.075-0.731 0.075zM211.047 191.095v-1.78h1.63v1.78zM211.047 202.862v-9.856h1.649v9.856zM219.16 203.087c-1.512 0-2.648-0.422-3.41-1.267-0.762-0.842-1.143-2.137-1.143-3.886v0c0-1.749 0.381-3.046 1.143-3.89 0.762-0.842 1.899-1.263 3.41-1.263v0c1.512 0 2.648 0.421 3.411 1.263 0.762 0.844 1.143 2.141 1.143 3.89v0c0 1.749-0.381 3.044-1.143 3.886-0.762 0.844-1.899 1.267-3.411 1.267zM219.16 201.719c0.999 0 1.724-0.291 2.174-0.873 0.45-0.58 0.675-1.525 0.675-2.837v0-0.15c0-1.312-0.225-2.259-0.675-2.841-0.45-0.58-1.174-0.869-2.174-0.869v0c-0.999 0-1.724 0.29-2.173 0.869-0.45 0.582-0.675 1.529-0.675 2.841v0 0.15c0 1.312 0.225 2.257 0.675 2.837 0.45 0.582 1.174 0.873 2.173 0.873zM225.625 202.862v-9.856h1.255l0.188 1.33h0.131c0.725-1.037 1.83-1.555 3.317-1.555v0c0.987 0 1.746 0.265 2.278 0.795 0.53 0.532 0.794 1.385 0.795 2.559v0 6.727h-1.649v-6.614c0-0.787-0.175-1.334-0.525-1.642-0.35-0.305-0.856-0.457-1.518-0.457v0c-0.475 0-0.912 0.115-1.311 0.345-0.4 0.232-0.718 0.567-0.956 1.004-0.237 0.437-0.356 0.949-0.356 1.537v0 5.827zM239.416 203.087c-0.912 0-1.67-0.135-2.275-0.405-0.607-0.267-1.054-0.62-1.341-1.056-0.287-0.437-0.431-0.912-0.431-1.425v0c0-0.15 0.004-0.254 0.011-0.311 0.005-0.055 0.007-0.089 0.007-0.101v0h1.631v0.188c0 0.587 0.231 1.028 0.693 1.322 0.462 0.292 1.062 0.438 1.799 0.439v0c0.637 0 1.166-0.129 1.585-0.386 0.417-0.255 0.626-0.613 0.626-1.076v0c0-0.362-0.119-0.66-0.356-0.892-0.237-0.23-0.531-0.411-0.881-0.543-0.35-0.13-0.824-0.27-1.424-0.42v0c-0.725-0.187-1.314-0.375-1.769-0.562-0.457-0.187-0.844-0.466-1.161-0.836-0.32-0.367-0.48-0.844-0.48-1.431v0c0-0.862 0.354-1.547 1.06-2.054 0.705-0.505 1.656-0.757 2.856-0.757v0c0.75 0 1.399 0.121 1.949 0.364 0.55 0.245 0.966 0.57 1.248 0.974 0.28 0.407 0.42 0.861 0.419 1.36v0l-0.018 0.356h-1.612v-0.168c0-0.437-0.172-0.799-0.517-1.087-0.342-0.287-0.894-0.431-1.656-0.431v0c-0.75 0-1.274 0.134-1.574 0.401-0.3 0.27-0.45 0.58-0.45 0.929v0c0 0.287 0.106 0.525 0.319 0.712 0.212 0.187 0.475 0.337 0.787 0.45 0.312 0.112 0.75 0.237 1.311 0.375v0c0.775 0.2 1.405 0.396 1.893 0.588 0.487 0.195 0.902 0.488 1.244 0.881 0.345 0.395 0.517 0.917 0.517 1.567v0c0 1.012-0.365 1.77-1.094 2.274-0.732 0.507-1.704 0.761-2.916 0.761z" fill="#ffffff" data-fill-palette-color="secondary"></path></g><g transform="matrix(1,0,0,1,29.331764404296877,51.60961083068109)"><svg viewBox="0 0 316.416 52.99138014527845" height="52.99138014527845" width="316.416"><g><svg viewBox="0 0 316.416 52.99138014527845" height="52.99138014527845" width="316.416"><g><svg viewBox="0 0 316.416 52.99138014527845" height="52.99138014527845" width="316.416"><g><svg viewBox="0 0 316.416 52.99138014527845" height="52.99138014527845" width="316.416"><g><svg viewBox="0 0 316.416 52.99138014527845" height="52.99138014527845" width="316.416"><g><svg viewBox="0 0 316.416 52.99138014527845" height="52.99138014527845" width="316.416"><g transform="matrix(1,0,0,1,0,0)"><svg width="316.416" viewBox="2.549999952316284 -40.95000076293945 247.77999877929688 41.5" height="52.99138014527845" data-palette-color="#000000"><path d="M2.55-7.3Q2.55-12.15 7.35-14.33 12.15-16.5 19.3-16.65L19.3-16.65 19.3-18.2Q19.3-20.75 18.78-22.23 18.25-23.7 16.95-24.38 15.65-25.05 13.3-25.05L13.3-25.05Q10.75-25.05 8.68-24.28 6.6-23.5 4.65-22.4L4.65-22.4 3.55-24.6Q4.1-25.1 5.85-26 7.6-26.9 9.85-27.6 12.1-28.3 14.2-28.3L14.2-28.3Q17.6-28.3 19.58-27.35 21.55-26.4 22.43-24.3 23.3-22.2 23.3-18.65L23.3-18.65 23.3-2.15 26.4-2.15 26.4-0.3Q23.65 0.45 21.75 0.45L21.75 0.45Q20.55 0.45 20.1 0.08 19.65-0.3 19.65-1.65L19.65-1.65 19.65-3.5Q17.85-1.9 15.73-0.68 13.6 0.55 10.9 0.55L10.9 0.55Q7.3 0.55 4.93-1.45 2.55-3.45 2.55-7.3L2.55-7.3ZM12.4-2.4Q13.8-2.4 15.75-3.3 17.7-4.2 19.3-5.45L19.3-5.45 19.3-14.3Q13.25-14.25 10.13-12.5 7-10.75 7-7.8L7-7.8Q7-4.95 8.45-3.68 9.9-2.4 12.4-2.4L12.4-2.4ZM34.2-2.55L34.2-37.8 29.95-38.25 29.95-40.1 37.25-40.95 37.3-40.95 38.25-40.3 38.25-2.5 42.95-2.15 42.95 0 29.8 0 29.8-2.15 34.2-2.55ZM58.7 0.55Q52.9 0.55 49.77-3.43 46.65-7.4 46.65-14L46.65-14Q46.65-18.25 48.3-21.55 49.95-24.85 52.87-26.68 55.8-28.5 59.45-28.5L59.45-28.5Q63.9-28.5 66.37-25.95 68.84-23.4 69.05-18.6L69.05-18.6Q69.05-15.5 68.75-14.2L68.75-14.2 50.95-14.2Q50.95-8.95 53.32-5.63 55.7-2.3 60-2.3L60-2.3Q62.09-2.3 64.3-3.05 66.5-3.8 67.7-4.85L67.7-4.85 68.5-3Q67.05-1.5 64.27-0.48 61.5 0.55 58.7 0.55L58.7 0.55ZM51-16.55L64.55-16.55Q64.7-17.6 64.7-18.75L64.7-18.75Q64.65-22.05 63.12-24 61.59-25.95 58.45-25.95L58.45-25.95Q51.59-25.95 51-16.55L51-16.55ZM75.14-2.55L83.99-13.95 75.44-25.1 72.49-25.7 72.49-27.75 84.04-27.75 84.04-25.7 80.39-25.1 85.34-18.1 86.84-15.9 88.19-18.05 93.44-25.1 89.59-25.7 89.59-27.75 99.94-27.75 99.94-25.7 96.84-25.1 88.29-14.4 97.29-2.5 100.29-2.1 100.29 0 88.44 0 88.44-2.1 91.99-2.55 86.99-9.9 85.44-12.15 84.04-9.95 78.74-2.55 83.14-2.1 83.14 0 71.69 0 71.69-2.1 75.14-2.55ZM100.59-38.25L100.59-40.1 107.89-40.95 107.99-40.95 108.94-40.25 108.94-25.05Q110.49-26.5 112.67-27.5 114.84-28.5 117.49-28.5L117.49-28.5Q120.44-28.5 122.92-27.05 125.39-25.6 126.92-22.55 128.44-19.5 128.44-14.9L128.44-14.9Q128.44-10.6 126.69-7.08 124.94-3.55 121.69-1.5 118.44 0.55 114.19 0.55L114.19 0.55Q111.09 0.55 108.29-0.1 105.49-0.75 104.89-1.35L104.89-1.35 104.89-37.8 100.59-38.25ZM115.84-25.45Q113.74-25.45 111.89-24.45 110.04-23.45 108.94-22.25L108.94-22.25 108.94-3.75Q109.29-2.95 110.92-2.48 112.54-2 114.54-2L114.54-2Q118.84-2 121.44-5.18 124.04-8.35 124.04-14.5L124.04-14.5Q124.04-20 121.72-22.73 119.39-25.45 115.84-25.45L115.84-25.45ZM133.29-7.3Q133.29-12.15 138.09-14.33 142.89-16.5 150.04-16.65L150.04-16.65 150.04-18.2Q150.04-20.75 149.51-22.23 148.99-23.7 147.69-24.38 146.39-25.05 144.04-25.05L144.04-25.05Q141.49-25.05 139.41-24.28 137.34-23.5 135.39-22.4L135.39-22.4 134.29-24.6Q134.84-25.1 136.59-26 138.34-26.9 140.59-27.6 142.84-28.3 144.94-28.3L144.94-28.3Q148.34-28.3 150.31-27.35 152.29-26.4 153.16-24.3 154.04-22.2 154.04-18.65L154.04-18.65 154.04-2.15 157.14-2.15 157.14-0.3Q154.39 0.45 152.49 0.45L152.49 0.45Q151.29 0.45 150.84 0.08 150.39-0.3 150.39-1.65L150.39-1.65 150.39-3.5Q148.59-1.9 146.46-0.68 144.34 0.55 141.64 0.55L141.64 0.55Q138.04 0.55 135.66-1.45 133.29-3.45 133.29-7.3L133.29-7.3ZM143.14-2.4Q144.54-2.4 146.49-3.3 148.44-4.2 150.04-5.45L150.04-5.45 150.04-14.3Q143.99-14.25 140.86-12.5 137.74-10.75 137.74-7.8L137.74-7.8Q137.74-4.95 139.19-3.68 140.64-2.4 143.14-2.4L143.14-2.4ZM164.94-2.55L164.94-37.8 160.69-38.25 160.69-40.1 167.99-40.95 168.03-40.95 168.99-40.3 168.99-2.5 173.69-2.15 173.69 0 160.53 0 160.53-2.15 164.94-2.55ZM177.28-14.05Q177.28-18.4 179.11-21.7 180.93-25 183.91-26.75 186.88-28.5 190.13-28.5L190.13-28.5Q196.43-28.5 199.46-24.4 202.48-20.3 202.48-13.9L202.48-13.9Q202.48-9.55 200.66-6.25 198.83-2.95 195.86-1.2 192.88 0.55 189.63 0.55L189.63 0.55Q183.33 0.55 180.31-3.55 177.28-7.65 177.28-14.05L177.28-14.05ZM189.88-2.05Q193.73-2.05 195.83-5 197.93-7.95 197.93-13.6L197.93-13.6Q197.93-19 195.98-22.45 194.03-25.9 189.93-25.9L189.93-25.9Q186.08-25.9 183.96-22.95 181.83-20 181.83-14.35L181.83-14.35Q181.83-8.9 183.81-5.48 185.78-2.05 189.88-2.05L189.88-2.05ZM212.88-33Q210.18-33 210.18-35.85L210.18-35.85Q210.18-37.3 211.03-38.23 211.88-39.15 213.33-39.15L213.33-39.15Q214.83-39.15 215.48-38.33 216.13-37.5 216.13-36.3L216.13-36.3Q216.13-34.75 215.31-33.88 214.48-33 212.93-33L212.93-33 212.88-33ZM211.28-2.55L211.28-24.45 207.38-25.3 207.38-27.55 214.23-28.35 214.33-28.35 215.33-27.55 215.33-2.5 219.68-2.15 219.68 0 206.88 0 206.88-2.15 211.28-2.55ZM246.13 0.45Q244.83 0.45 244.23 0 243.63-0.45 243.63-1.65L243.63-1.65 243.63-3.6Q241.78-1.95 239.28-0.7 236.78 0.55 234.28 0.55L234.28 0.55Q229.73 0.55 227.8-2 225.88-4.55 225.88-10.3L225.88-10.3 225.88-25 222.93-25.85 222.93-27.7 228.98-28.35 229.03-28.35 229.93-27.75 229.93-10.9Q229.93-7.75 230.38-5.98 230.83-4.2 232.03-3.35 233.23-2.5 235.53-2.5L235.53-2.5Q237.73-2.5 239.73-3.45 241.73-4.4 243.18-5.7L243.18-5.7 243.18-25 239.38-25.85 239.38-27.7 246.03-28.35 246.08-28.35 247.23-27.75 247.23-2.2 250.33-2.2 250.28-0.3Q250.03-0.25 248.83 0.1 247.63 0.45 246.13 0.45L246.13 0.45Z" opacity="1" transform="matrix(1,0,0,1,0,0)" fill="#ffffff" class="undefined-text-0" data-fill-palette-color="primary" id="text-0"></path></svg></g></svg></g></svg></g></svg></g></svg></g></svg></g></svg></g></svg></g></svg><rect width="375.07952880859375" height="156.21060180664062" fill="none" stroke="none" visibility="hidden"></rect></g></svg></g></svg>